' Generated by UML Generator
' Encoded: hLXRRzis57xtho3ovCnsazxsO6n6Sp6636uJn0w6eXi2Mc9iBXBbYbGpjsj--qXH4WylYhHbBuR9S_zupk6Xtd61Sr6aoO3VKxR3EKvHb63EJuJ8wReGv2BAs99-9UXuiAKnGH7DeuGC1YKNEjiIBfRRR8U-3H2QC9oIALfAKRPHQof8EaKNybUjegnWOeee4sgrosb4cbNsm4Z-mHNdIv8aSZ55wonB26PgTo9_HetX8RGvHfwUmwUuZNzZPBmR8-DRfT7IjY52MHWU0bz7lDg41YJ3bup6bOmoesGgE9H4kMMSiFdFb4DAG4Ea-FMMyTGMk59Usm9wouHZ2rpMO7cX68eFg551-KLzGag3EQEHo3QRX2ZQiER_tkHCnZZvN10MaN3M2Ae0hn8Z9ZpAwKxGZ44UdGH6autxKyGnQlJtvHkZW1VFIOMLr6mVLBbZ7BEupurnpn2aXPnqmP_VtP58QDp5VaSyJ3M33sTWNo84DFJZQeSoB6gEe9yM1Qvaz70gDortFMHOjCLCf8HLy92_TcSPDmrBmsEu0XYr4CT8wZ8Pryts14gjiW2gRZKIfhaEpqx3UXF63f2IAvBVOLcuvrZWzvZX3SbBj1wZB4qnY_aGruO-_I6Tcg85vUAdrKngMIc-OZSqsVqOo_O2rrJMOYw6Kcm5kKX2175txoYBXnoSvyfsyORZTQ9Rp6F1YT-8LCjjwK1EPSXRChfNjw2T36NxzhB0smtKIGVF6DaMdzLh_bKvQ9bbRTtE3hFjk1T2LlNL8ZL7GChwvbL2w6gVML0QYJ2eBNGNEcreMhMw9jsrUHMGuq2PznKrw2J01iTnrQSSAuQbDTL0FaxY8iThcb2nRpAAcCgUmcPaGQHrXE49q7faLK_9Dk_-ktNPd6mG_aTL7VwgExKHi5CSxBlkMHK2-_2XUrvbHW66LcSwikOzfgpCbz4t6R2WqNTqUhauhs50FwE3tulZuvUddrwc1nRRzNmvNmNuZZs-aBRNhhfVhkVp3o76LmxZn_bYSVbRYFErmtcwk9c7-DuuV5StrrUB8ETRX_FiuqdGnnyTFd0QN9LvNUncUoR56Nb09tcEzoLnDZoqTUW-0SLrh-YKLDC-b5C9tosrI_2Uv53kgjpfbepKquVBfmyKRjv3RVAwupHAKfc8GvnlkBdRGUvQR6Vr722VauK8N2_0CoowkHv88aSBSeePqpEpno4AaUKK9q6Y71tmNWxMQSjDrI31uJGpCjEC5VIu2qwflrcKPGsddP4pxOogQQVK2GIXX9vydk3mfY3BldpNvFkJnC96PU1ATTYRNOobyk3xSqkIdT-Gpa_b7SnadijvKbza3T2_IXgilZ_ZTJJToHboanF-EPaU7ILPX9EjcYhVlddzwgX1yZPU7rYgRfRpQwYgrc9pNPqibv2BxFVq_Yil3lpqBH_JjTygAhFgc-RE0wfdjhIsYSDwSEYT959LODYeyYDCB5F36GoDrV09WoxODyRkTkfVaFr2xhusw_YxERqwSJoASYABuPOoAcGlkOLHcPaHnDGEeQgadjW5BmFmYQWNJC7whO09qZmeQdFXUFHDqpEYrejAgjN_UiUbLTLYVcojT2y-O_Yf2Di_ON9uF4rxqLA1BugyGloPtmfDtjLsrVD3K_npbS6OZx4_J2RwKAlFFPF9tpFutMq0FtPuHEVrLj9BRGxXnGj9qCEwIyga0rMh0KyVMrErwMgfjbK8i4JBMJXhtTIscdLff5bLvz-ipHNfN_-bE-3hHf1brg5Y1j5lL-tHPtKWeJRiYmUPPXP2LZFoD3ZKocsdu3qfZpwh4QuAgJc1TuJ5HPhy0m
' URL: http://www.plantuml.com/plantuml/uml/hLXRRzis57xtho3ovCnsazxsO6n6Sp6636uJn0w6eXi2Mc9iBXBbYbGpjsj--qXH4WylYhHbBuR9S_zupk6Xtd61Sr6aoO3VKxR3EKvHb63EJuJ8wReGv2BAs99-9UXuiAKnGH7DeuGC1YKNEjiIBfRRR8U-3H2QC9oIALfAKRPHQof8EaKNybUjegnWOeee4sgrosb4cbNsm4Z-mHNdIv8aSZ55wonB26PgTo9_HetX8RGvHfwUmwUuZNzZPBmR8-DRfT7IjY52MHWU0bz7lDg41YJ3bup6bOmoesGgE9H4kMMSiFdFb4DAG4Ea-FMMyTGMk59Usm9wouHZ2rpMO7cX68eFg551-KLzGag3EQEHo3QRX2ZQiER_tkHCnZZvN10MaN3M2Ae0hn8Z9ZpAwKxGZ44UdGH6autxKyGnQlJtvHkZW1VFIOMLr6mVLBbZ7BEupurnpn2aXPnqmP_VtP58QDp5VaSyJ3M33sTWNo84DFJZQeSoB6gEe9yM1Qvaz70gDortFMHOjCLCf8HLy92_TcSPDmrBmsEu0XYr4CT8wZ8Pryts14gjiW2gRZKIfhaEpqx3UXF63f2IAvBVOLcuvrZWzvZX3SbBj1wZB4qnY_aGruO-_I6Tcg85vUAdrKngMIc-OZSqsVqOo_O2rrJMOYw6Kcm5kKX2175txoYBXnoSvyfsyORZTQ9Rp6F1YT-8LCjjwK1EPSXRChfNjw2T36NxzhB0smtKIGVF6DaMdzLh_bKvQ9bbRTtE3hFjk1T2LlNL8ZL7GChwvbL2w6gVML0QYJ2eBNGNEcreMhMw9jsrUHMGuq2PznKrw2J01iTnrQSSAuQbDTL0FaxY8iThcb2nRpAAcCgUmcPaGQHrXE49q7faLK_9Dk_-ktNPd6mG_aTL7VwgExKHi5CSxBlkMHK2-_2XUrvbHW66LcSwikOzfgpCbz4t6R2WqNTqUhauhs50FwE3tulZuvUddrwc1nRRzNmvNmNuZZs-aBRNhhfVhkVp3o76LmxZn_bYSVbRYFErmtcwk9c7-DuuV5StrrUB8ETRX_FiuqdGnnyTFd0QN9LvNUncUoR56Nb09tcEzoLnDZoqTUW-0SLrh-YKLDC-b5C9tosrI_2Uv53kgjpfbepKquVBfmyKRjv3RVAwupHAKfc8GvnlkBdRGUvQR6Vr722VauK8N2_0CoowkHv88aSBSeePqpEpno4AaUKK9q6Y71tmNWxMQSjDrI31uJGpCjEC5VIu2qwflrcKPGsddP4pxOogQQVK2GIXX9vydk3mfY3BldpNvFkJnC96PU1ATTYRNOobyk3xSqkIdT-Gpa_b7SnadijvKbza3T2_IXgilZ_ZTJJToHboanF-EPaU7ILPX9EjcYhVlddzwgX1yZPU7rYgRfRpQwYgrc9pNPqibv2BxFVq_Yil3lpqBH_JjTygAhFgc-RE0wfdjhIsYSDwSEYT959LODYeyYDCB5F36GoDrV09WoxODyRkTkfVaFr2xhusw_YxERqwSJoASYABuPOoAcGlkOLHcPaHnDGEeQgadjW5BmFmYQWNJC7whO09qZmeQdFXUFHDqpEYrejAgjN_UiUbLTLYVcojT2y-O_Yf2Di_ON9uF4rxqLA1BugyGloPtmfDtjLsrVD3K_npbS6OZx4_J2RwKAlFFPF9tpFutMq0FtPuHEVrLj9BRGxXnGj9qCEwIyga0rMh0KyVMrErwMgfjbK8i4JBMJXhtTIscdLff5bLvz-ipHNfN_-bE-3hHf1brg5Y1j5lL-tHPtKWeJRiYmUPPXP2LZFoD3ZKocsdu3qfZpwh4QuAgJc1TuJ5HPhy0m
' Generated on: 2025-11-20T10:23:08.752731400

@startuml
skinparam classAttributeIconSize 0
hide circle

class ChestShop {
  -name: String
  -item: Item
  -count: int
  -price: int
  -ownerName: String
  -isSelling: boolean
  --
  +ChestShop(name: String, ownerName: String)
  +ChestShop(name: String, item: Item, count: int, price: int, owner: String)
  +getName(): String
  +setName(name: String): void
  +getItem(): Item
  +setItem(item: Item): void
  +getCount(): int
  +setCount(count: int): void
  +getPrice(): int
  +setPrice(price: int): void
  +getOwnerName(): String
  +setOwnerName(ownerName: String): void
  +isIsSelling(): boolean
  +toggleSell(): void
}

class Consequence {
  -name: String
  -tier: int
  -description: String
  --
  +Consequence(name: String)
  +Consequence(name: String, tier: int)
  +Consequence(name: String, tier: int, description: String)
  +getName(): String
  +setName(name: String): void
  +getTier(): int
  +setTier(tier: int): void
  +getDescription(): String
  +setDescription(description: String): void
}

class Effect {
  -type: String
  --
  +Effect(name: String)
  +Effect(name: String, type: String)
  +Effect(name: String, type: String, description: String)
  +Effect(name: String, tier: int, type: String, description: String)
  +getType(): String
  +setType(type: String): void
}

class Enchantment {
  -expCost: int
  --
  +Enchantment(name: String)
  +Enchantment(name: String, exp: int)
  +Enchantment(name: String, exp: int, description: String)
  +Enchantment(name: String, tier: int, exp: int, description: String)
  +getExpCost(): int
  +setExpCost(expCost: int): void
}

interface DataManager {
  ~commands(a: String[], t: List<T>): T
  ~up(): void
  ~down(): void
  ~insert(t: T): void
  ~delete(t: T): void
  ~find(s: String): T
}

interface Usable {
  ~use(): void
}

class Item {
  -name: String
  -type: String
  -stackSize: int
  --
  +Item(name: String)
  +Item(name: String, type: String)
  +Item(name: String, type: String, stackSize: int)
  +getName(): String
  +setName(name: String): void
  +getType(): String
  +setType(type: String): void
  +getStackSize(): int
  +setStackSize(stackSize: int): void
}

class ItemConsumable {
  ~effects: List<Effect>
  --
  +ItemConsumable(name: String)
  +ItemConsumable(name: String, type: String, effect: Effect)
  +getEffects(): List<Effect>
  +setEffects(effects: List<Effect>): void
  +addEffect(effect: Effect): void
  +use(): void
}

class ItemUsable {
  -durability: int
  -enchantment: Enchantment
  --
  +ItemUsable(name: String)
  +ItemUsable(name: String, type: String, stackSize: int)
  +ItemUsable(name: String, type: String, enchantment: Enchantment)
  +ItemUsable(name: String, type: String, stackSize: int, durability: int)
  +ItemUsable(name: String, type: String, stackSize: int, durability: int, enchantment: Enchantment)
  +getDurability(): int
  +setDurability(durability: int): void
  +getEnchantment(): Enchantment
  +setEnchantment(enchantment: Enchantment): void
  +use(): void
}

class Main {
  +{static} BOLD: String = "\u001B[1m"
  +{static} RESET: String = "\u001B[0m"
  +{static} RED: String = "\u001B[31m"
  +{static} GREEN: String = "\u001B[32m"
  +{static} YELLOW: String = "\u001B[33m"
  +{static} BLUE: String = "\u001B[34m"
  +{static} PURPLE: String = "\u001B[35m"
  +{static} CYAN: String = "\u001B[36m"
  +{static} enchantmentsList: List<Enchantment> = new ArrayList<>()
  +{static} effectsList: List<Effect> = new ArrayList<>()
  +{static} itemsList: List<Item> = new ArrayList<>()
  +{static} playersList: List<Player> = new ArrayList<>()
  +{static} chestshopsList: List<ChestShop> = new ArrayList<>()
  --
  +{static} main(args: String[]): void
  +{static} mainCommands(input: String): void
  +{static} chat(input: String): void
  +{static} welcomeBanner(): void
  +{static} tutorial(): void
  +{static} delay(time: int): void
}

class ChestShopsManager {
  +commands(args: String[], chestshopsList: List<ChestShop>): ChestShop
  +up(): void
  +down(): void
  +insert(chest: ChestShop): void
  +delete(chest: ChestShop): void
  +find(s: String): ChestShop
  +queryAll(): void
  +itemTableUpdate(item: Item): void
  +help(): void
}

class DBConnection {
  -{static} JDBC: String = "jdbc:postgresql://localhost:5432/chestshop_db"
  -{static} USER: String = "postgres"
  -{static} PASS: String = "eyyikzsu"
  --
  +{static} getConnection(): Connection
  +{static} main(args: String[]): void
}

class EffectsManager {
  +commands(args: String[], effectsList: List<Effect>): Effect
  +up(): void
  +down(): void
  +insert(eff: Effect): void
  +delete(eff: Effect): void
  +find(name: String): Effect
  +help(): void
}

class EnchantmentsManager {
  +commands(args: String[], enchantmentsList: List<Enchantment>): Enchantment
  +up(): void
  +down(): void
  +insert(enchantment: Enchantment): void
  +delete(enchantment: Enchantment): void
  +find(s: String): Enchantment
  +create_initial_enchantments(): List<Enchantment>
  +help(): void
}

class ItemsManager {
  +commands(args: String[], itemsList: List<Item>): Item
  +up(): void
  +down(): void
  +insert(item: Item): void
  +delete(item: Item): void
  +find(s: String): Item
  +help(): void
}

class PlayersManager {
  +commands(args: String[], playersList: List<Player>): Player
  +up(): void
  +down(): void
  +insert(player: Player): void
  +delete(player: Player): void
  +find(s: String): Player
  +help(): void
}

class Player {
  -name: String
  -items: List<Item>
  --
  +Player(name: String, items: Item)
  +getName(): String
  +setName(name: String): void
  +getItems(): List<Item>
  +addItems(item: Item): void
}

ChestShop *-- Item
Effect --|> Consequence
Enchantment --|> Consequence
ItemConsumable --|> Item
ItemConsumable ..|> Usable
ItemConsumable o-- Effect
ItemUsable --|> Item
ItemUsable ..|> Usable
ItemUsable *-- Enchantment
Main o-- Enchantment
Main o-- Effect
Main o-- Item
Main o-- Player
Main o-- ChestShop
ChestShopsManager ..|> DataManager
ChestShopsManager ..> ChestShop
ChestShopsManager ..> Item
EffectsManager ..|> DataManager
EffectsManager ..> Effect
EnchantmentsManager ..|> DataManager
EnchantmentsManager ..> Enchantment
ItemsManager ..|> DataManager
ItemsManager ..> Item
PlayersManager ..|> DataManager
PlayersManager ..> Player
Player o-- Item
@enduml